<?xml version="1.0" encoding="UTF-8" standalone="no"?>
<!DOCTYPE svg PUBLIC "-//W3C//DTD SVG 1.1//EN" "http://www.w3.org/Graphics/SVG/1.1/DTD/svg11.dtd">
<svg width="100%" height="100%" viewBox="0 0 700 164" version="1.1" xmlns="http://www.w3.org/2000/svg" xmlns:xlink="http://www.w3.org/1999/xlink" xml:space="preserve" style="fill-rule:evenodd;clip-rule:evenodd;stroke-linejoin:round;stroke-miterlimit:1.41421;">
    <g transform="matrix(1,0,0,1,0,-262.767)">
        <g id="logo" transform="matrix(1,0,0,0.773072,0,262.767)">
            <rect x="0" y="0" width="700" height="211" style="fill:none;"/>
            <g transform="matrix(1.25734,0,0,1.62642,-954.119,-3.90663)">
                <path d="M825.114,104.027L825.114,89.299L805.967,67.206L805.967,65.734L823.641,48.06L823.641,33.331L822.169,31.859L813.332,31.859L810.386,33.331L780.929,62.788L779.457,62.788L779.457,3.875L777.984,2.402L760.31,2.402L758.837,3.875L758.837,104.027L760.31,105.5L777.984,105.5L779.457,104.027L779.457,93.717L780.929,90.772L789.766,81.935L791.239,81.935L811.859,104.027L814.804,105.5L823.641,105.5L825.114,104.027Z" style="fill:white;fill-rule:nonzero;"/>
                <path d="M858.989,18.603L858.989,3.875L857.517,2.402L839.843,2.402L838.37,3.875L838.37,18.603L839.843,20.076L857.517,20.076L858.989,18.603ZM858.989,104.027L858.989,33.331L857.517,31.859L839.843,31.859L838.37,33.331L838.37,104.027L839.843,105.5L857.517,105.5L858.989,104.027Z" style="fill:white;fill-rule:nonzero;"/>
                <path d="M988.598,104.027L988.598,59.842C988.598,40.696 978.288,30.386 960.615,30.386C944.413,30.386 938.522,40.696 938.522,40.696L937.049,40.696C934.104,36.277 928.212,30.386 916.43,30.386C903.174,30.386 898.756,37.75 898.756,37.75L897.283,37.75L895.81,33.331L894.337,31.859L878.136,31.859L876.663,33.331L876.663,104.027L878.136,105.5L895.81,105.5L897.283,104.027L897.283,64.261C897.283,53.951 901.701,48.06 910.538,48.06C919.375,48.06 922.321,53.951 922.321,61.315L922.321,104.027L923.794,105.5L941.468,105.5L942.941,104.027L942.941,64.261C942.941,53.951 947.359,48.06 956.196,48.06C965.033,48.06 967.979,53.951 967.979,61.315L967.979,104.027L969.452,105.5L987.125,105.5L988.598,104.027Z" style="fill:white;fill-rule:nonzero;"/>
                <path d="M1031.31,104.027L1031.31,84.88L1029.84,83.408L1009.22,83.408L1007.75,84.88L1007.75,104.027L1009.22,105.5L1029.84,105.5L1031.31,104.027Z" style="fill:white;fill-rule:nonzero;"/>
                <path d="M1072.55,33.331L1071.08,31.859L1053.4,31.859L1051.93,33.331L1051.93,108.446C1051.93,112.864 1050.46,114.337 1046.04,114.337L1038.67,114.337L1037.2,115.81L1037.2,130.538L1038.67,132.011L1047.51,132.011C1063.71,132.011 1072.55,126.12 1072.55,108.446L1072.55,33.331ZM1072.55,18.603L1072.55,3.875L1071.08,2.402L1053.4,2.402L1051.93,3.875L1051.93,18.603L1053.4,20.076L1071.08,20.076L1072.55,18.603Z" style="fill:white;fill-rule:nonzero;"/>
                <path d="M1150.61,83.408C1150.61,65.734 1134.41,62.788 1125.57,61.315C1116.73,59.842 1107.9,59.842 1107.9,53.951C1107.9,49.533 1110.84,48.06 1118.21,48.06C1125.57,48.06 1128.52,49.533 1128.52,52.478L1129.99,53.951L1147.66,53.951L1149.14,52.478C1149.14,37.75 1135.88,30.386 1118.21,30.386C1096.12,30.386 1087.28,40.696 1087.28,52.478C1087.28,70.152 1106.42,74.571 1115.26,76.043C1124.1,77.516 1129.99,77.516 1129.99,83.408C1129.99,87.826 1125.57,89.299 1118.21,89.299C1110.84,89.299 1106.42,87.826 1106.42,81.935L1104.95,80.462L1087.28,80.462L1085.81,81.935C1085.81,96.663 1097.59,106.973 1118.21,106.973C1141.77,106.973 1150.61,95.19 1150.61,83.408Z" style="fill:white;fill-rule:nonzero;"/>
                <path d="M1233.09,68.679C1233.09,45.114 1218.36,30.386 1196.27,30.386C1174.17,30.386 1159.45,45.114 1159.45,68.679C1159.45,92.245 1174.17,106.973 1196.27,106.973C1218.36,106.973 1233.09,92.245 1233.09,68.679ZM1212.47,68.679C1212.47,81.935 1206.58,89.299 1196.27,89.299C1185.96,89.299 1180.07,81.935 1180.07,68.679C1180.07,55.424 1185.96,48.06 1196.27,48.06C1206.58,48.06 1212.47,55.424 1212.47,68.679Z" style="fill:white;fill-rule:nonzero;"/>
                <path d="M1315.57,104.027L1315.57,59.842C1315.57,42.168 1305.26,30.386 1287.58,30.386C1277.27,30.386 1271.38,34.804 1268.44,37.75L1266.96,37.75L1265.49,33.331L1264.02,31.859L1247.82,31.859L1246.34,33.331L1246.34,104.027L1247.82,105.5L1265.49,105.5L1266.96,104.027L1266.96,67.206C1266.96,53.951 1272.85,48.06 1283.16,48.06C1292,48.06 1294.95,53.951 1294.95,61.315L1294.95,104.027L1296.42,105.5L1314.09,105.5L1315.57,104.027Z" style="fill:white;fill-rule:nonzero;"/>
            </g>
        </g>
    </g>
</svg>
